# xmcd CD database file generated by OrangeCD 5.2
#
# Track frame offsets:
#	150
#	15026
#	27464
#	41066
#	53324
#	64279
#	77224
#	91245
#	108341
#	121614
#	135781
#
# Disc length: 2022 seconds
#
# Revision: 2
# Processed by: cddbd v1.5.2PL0 Copyright (c) Steve Scherf et al.
# Submitted via: OrangeCD 5.2
#
DISCID=7607e40b
DTITLE=T.C. Matic - L'Apache
DYEAR=1900
DGENRE=Blues
TTITLE0=Middle class and blue eyes
TTITLE1=Que passa?
TTITLE2=Touch me
TTITLE3=Rip off Poppoff
TTITLE4=Mon ami Louis
TTITLE5=Just another joke
TTITLE6=Le Java
TTITLE7=I'm not gonna listen
TTITLE8=Les Zazous
TTITLE9=Stay scared stay alive
TTITLE10=La-bas
EXTD=
EXTT0=
EXTT1=
EXTT2=
EXTT3=
EXTT4=
EXTT5=
EXTT6=
EXTT7=
EXTT8=
EXTT9=
EXTT10=
PLAYORDER=
